<svg xmlns="http://www.w3.org/2000/svg" viewBox="0 0 398.62335205078125 123.30878448486328">  <g transform="matrix(1 0 0 1 228.80162048339844 69.93667602539062)"> <g> <g> <g is="lm-picture"> <defs> <filter x="-50%" y="-50%" width="200%" height="200%" id="filter107">    <feFlood in="SourceGraphic" flood-color="#000000"/> <feComposite operator="xor" in2="SourceGraphic"/> <feGaussianBlur stdDeviation="0.75"/> <feOffset dx="0" dy="0"/> <feComponentTransfer> <feFuncA type="linear" slope="0.75"/> </feComponentTransfer> <feComposite operator="in" in2="SourceGraphic"/> <feComposite operator="over" in2="SourceGraphic" result="inner"/> <feMerge>  <feMergeNode in="SourceGraphic"/> <feMergeNode in="inner"/> </feMerge> </filter> </defs> <g filter="url(#filter107)" transform="matrix(1.1454062145542663 -0.0008354094697488396 0.0008355115211244378 1.1454065158295526 112.94614838531578 -78.80370939495998)"> <g transform="matrix(1.0757655446185101 3.1624172036209313e-9 -1.35246539792204e-7 1.0757657824134184 -58.005341938583385 7.777542288677714)"> <defs> <linearGradient x1="0" y1="0" x2="0" y2="1" id="gradient108" gradientTransform="rotate(0 .5 .5)"> <stop offset="0" stop-color="#daeaf9" stop-opacity="1"/><stop offset="1" stop-color="#e1ffda" stop-opacity="1"/> </linearGradient>  </defs> <path fill="url(#gradient108)" d="M0 0h100v100H0z"/> </g><g transform="matrix(0.9999999203829968 1.9073485868093807e-8 -2.2855903786686782e-7 1.000000034283855 -51.310313337163805 21.74192593307939)"> <defs> <linearGradient x1="0" y1="0" x2="0" y2="1" id="gradient109" gradientTransform="rotate(0 .5 .5)"> <stop offset="0" stop-color="#cf6868" stop-opacity="1"/><stop offset="0.3333333333333333" stop-color="#619d58" stop-opacity="1"/><stop offset="0.6666666666666666" stop-color="#4b72a6" stop-opacity="1"/><stop offset="1" stop-color="#8a4d90" stop-opacity="1"/> </linearGradient>  </defs> <path fill="url(#gradient109)" d="M39.444 8.277a.556.556 0 0 0-.551.563v10.01c-.03-.022-.058-.046-.088-.066a.556.556 0 0 0-.045-.034l-.01-.01a.556.556 0 0 0-.044-.023.556.556 0 0 0-.354-.098.556.556 0 0 0-.254.099.556.556 0 0 0-.02.022.556.556 0 0 0-.024.01.556.556 0 0 0-.02.023.556.556 0 0 0-.024.021.556.556 0 0 0-.011.023.556.556 0 0 0-.032.033.556.556 0 0 0-.012.01.556.556 0 0 0-.01.022.556.556 0 0 0-.012.023.556.556 0 0 0-.032.032.556.556 0 0 0 0 .01.556.556 0 0 0-.012.033.556.556 0 0 0-.01.023.556.556 0 0 0 0 .02.556.556 0 0 0-.012.036.556.556 0 0 0 0 .02.556.556 0 0 0-.01.034.556.556 0 0 0 0 .022.556.556 0 0 0 0 .032.556.556 0 0 0 0 .023.556.556 0 0 0 0 .033.556.556 0 0 0 0 .023.556.556 0 0 0 .011.032.556.556 0 0 0 .012.044.556.556 0 0 0 0 .011.556.556 0 0 0 .01.021.556.556 0 0 0 .122.21.556.556 0 0 0 .022.01.556.556 0 0 0 .055.055c.27.266.54.538.804.805v16.857H37.25a.556.556 0 0 0-.056 0 .558.558 0 1 0 .056 1.113h1.642v1.091H37.25a.557.557 0 1 0 0 1.114h1.642V86.17H0v5.556h100V86.17H61.163c2.667-18.674.762-34.84-5.722-47.768h3.472v-3.35h2.789a.556.556 0 1 0 0-1.104H55a.556.556 0 0 0-.111 0 .556.556 0 0 0 .11 1.103h2.8v2.239h-2.932c-3.629-6.85-8.581-12.76-14.86-17.606V8.837a.556.556 0 0 0-.562-.562zm.562 13.306c.381.4.757.797 1.125 1.201v14.509h-1.125v-15.71zm2.227 2.437a67.269 67.269 0 0 1 8.466 12.16h-8.466V24.02zM45 25.607c13.726 14.042 18.757 34.78 15.038 60.566H58.13c4.06-22.073.824-43.1-13.13-60.566zm-2.767 11.674h9.051c.38.735.743 1.474 1.092 2.217H42.245v-1.654a.556.556 0 0 0-.012-.11v-.453zm-2.227 1.125h1.125v1.092h-1.125v-1.092zm0 2.205h1.125v45.563h-1.125V40.61zm2.227 0h10.649c.331.743.648 1.486.949 2.238H42.233v-2.238zm0 3.352h12.038c.278.733.543 1.473.795 2.215H42.234v-2.215zm0 3.328h13.185c.233.735.465 1.475.672 2.217H42.233V47.29zm0 3.318h14.155c.195.748.37 1.496.54 2.25H42.234v-2.25zm0 3.352h14.928c.152.735.29 1.475.419 2.216H42.233v-2.216zm0 3.33h15.534c.116.736.226 1.474.319 2.215H42.233v-2.215zm0 3.318h15.974c.08.746.15 1.497.21 2.249H42.232v-2.249zm0 3.35h16.272c.046.738.073 1.475.1 2.217H42.232v-2.217zm0 3.33h16.404c.016.736.016 1.476.011 2.217H42.233v-2.217zm0 3.33h16.415a85.822 85.822 0 0 1-.077 2.237H42.233v-2.237zm0 3.35h16.282c-.041.734-.104 1.47-.165 2.206H42.233V73.97zm0 3.32h16.03a99.708 99.708 0 0 1-.231 2.226h-15.8V77.29zm0 3.328h15.655a100.605 100.605 0 0 1-.32 2.227H42.233v-2.226zm0 3.34h15.17c-.121.74-.258 1.475-.396 2.217H42.235v-2.218zm-41.12 3.33h97.774v3.33H1.113v-3.33z"/> </g><g transform="matrix(0.9999999033223279 8.824624390958223e-9 -1.907355552389199e-8 1.000000066284212 -24.46983359987743 7.858482791702608)"> <defs> <linearGradient x1="0" y1="0" x2="0" y2="1" id="gradient110" gradientTransform="rotate(0 .5 .5)"> <stop offset="0" stop-color="#f0a7a7" stop-opacity="1"/><stop offset="0.3333333333333333" stop-color="#8b5f5f" stop-opacity="1"/><stop offset="0.6666666666666666" stop-color="#5964a0" stop-opacity="1"/><stop offset="1" stop-color="#7f418c" stop-opacity="1"/> </linearGradient>  </defs> <path fill="url(#gradient110)" d="M39.519 75.4h1.11v24.59h-1.11zm1.526 0h1.11v24.59h-1.11zm1.528-19.657h1.11V99.99h-1.11zm1.526-.012h1.11v44.246H44.1zm1.527-27.913h1.11v72.16h-1.11zm1.528 0h1.11v72.16h-1.11zm1.527-19.99h1.109v92.15h-1.11zM50.207 0h1.111v99.977h-1.111zm1.53 35.937h1.11V99.99h-1.11zm1.525 0h1.11V99.99h-1.11zM54.79 63.92h1.112v36.07H54.79zm1.526 0h1.112v36.07h-1.112zm1.528 19.873h1.11V100h-1.11zm1.527 0h1.11V100h-1.11z"/> </g><g transform="matrix(0.38445319406110234 1.0529747438957302e-7 -1.2187719162537187e-7 0.38445322626524975 -51.53141189952144 77.74464819115578)"> <defs> <linearGradient x1="0" y1="0" x2="0" y2="1" id="gradient111" gradientTransform="rotate(0 .5 .5)"> <stop offset="0" stop-color="#d19393" stop-opacity="1"/><stop offset="0.3333333333333333" stop-color="#6aad61" stop-opacity="1"/><stop offset="0.6666666666666666" stop-color="#5255aa" stop-opacity="1"/><stop offset="1" stop-color="#b62c5e" stop-opacity="1"/> </linearGradient>  </defs> <path fill="url(#gradient111)" d="M1.107 75.078l-.695-.25-.394-.624L0 53.892l10.83-4.446 10.828 4.446v8.92h1.668v-4.43l7.786-33.46 7.77 33.46v4.455h1.671v-5.569l4.165-5.583h4.435v-2.209h6.676v2.209h4.445l4.167 5.583v3.336h1.671v-7.798l9.16-5.553 9.17 5.553v11.116h1.67V43.325l6.951-1.676L100 43.325v30.626l-.234.7-.87.427H1.106"/> </g> </g> </g><g is="lm-text" transform="matrix(1.999999924336519 0 0 1.9999999077089254 -235.3571810377302 17.640878230170397)"> <defs> <filter x="-50%" y="-50%" width="200%" height="200%" id="filter112"> <feGaussianBlur in="SourceAlpha" stdDeviation="1"/> <feOffset dx="-0.26047226650039546" dy="1.477211629518312"/> <feComponentTransfer result="drop"> <feFuncA type="linear" slope="0.4"/> </feComponentTransfer>        <feMerge> <feMergeNode in="drop"/> <feMergeNode in="SourceGraphic"/>  </feMerge> </filter> </defs>  <path filter="url(#filter112)" fill="#ffffff" fill-opacity="1" d="M3.2777777777777786,-6.7777777777777715C3.2777777777777786,-6.7777777777777715,9.11111111111111,-6.7777777777777715,9.11111111111111,-6.7777777777777715C10,-6.7777777777777715,10.777777777777779,-6.722222222222214,11.5,-6.555555555555548C12.222222222222223,-6.388888888888882,12.88888888888889,-6.111111111111104,13.444444444444445,-5.7777777777777715C14,-5.4444444444444375,14.444444444444445,-5.055555555555548,14.88888888888889,-4.611111111111104C15.333333333333334,-4.166666666666659,15.666666666666666,-3.666666666666659,15.944444444444445,-3.166666666666659C16.22222222222222,-2.666666666666659,16.444444444444443,-2.1111111111111036,16.555555555555557,-1.5555555555555483C16.666666666666664,-0.9999999999999929,16.77777777777778,-0.44444444444443754,16.77777777777778,0.11111111111111782C16.77777777777778,0.6666666666666732,16.666666666666664,1.1666666666666732,16.555555555555557,1.7222222222222285C16.444444444444443,2.277777777777785,16.27777777777778,2.83333333333334,16,3.3888888888888955C15.722222222222221,3.944444444444451,15.38888888888889,4.444444444444451,15,4.8888888888888955C14.61111111111111,5.333333333333339,14.055555555555555,5.777777777777784,13.5,6.111111111111118C12.944444444444445,6.444444444444451,12.222222222222223,6.7222222222222285,11.5,6.944444444444451C10.777777777777779,7.166666666666673,9.944444444444445,7.2222222222222285,9,7.2222222222222285C9,7.2222222222222285,3.2777777777777786,7.2222222222222285,3.2777777777777786,7.2222222222222285C3.2777777777777786,7.2222222222222285,3.2777777777777786,5.8888888888888955,3.2777777777777786,5.8888888888888955C3.500000000000001,5.8888888888888955,3.722222222222223,5.8888888888888955,3.8888888888888893,5.833333333333339C4.055555555555556,5.777777777777784,4.222222222222223,5.7222222222222285,4.333333333333334,5.611111111111118C4.444444444444445,5.500000000000006,4.555555555555556,5.333333333333339,4.611111111111112,5.111111111111118C4.666666666666668,4.8888888888888955,4.722222222222223,4.5555555555555625,4.722222222222223,4.166666666666673C4.722222222222223,4.166666666666673,4.722222222222223,-3.499999999999993,4.722222222222223,-3.499999999999993C4.722222222222223,-3.499999999999993,4.722222222222223,-4.055555555555548,4.722222222222223,-4.055555555555548C4.722222222222223,-4.055555555555548,4.722222222222223,-4.555555555555548,4.722222222222223,-4.555555555555548C4.722222222222223,-4.555555555555548,4.722222222222223,-4.999999999999993,4.722222222222223,-4.999999999999993C4.722222222222223,-4.999999999999993,4.777777777777779,-5.166666666666659,4.777777777777779,-5.2777777777777715C4.777777777777779,-5.2777777777777715,3.2777777777777786,-5.222222222222214,3.2777777777777786,-5.222222222222214C3.2777777777777786,-5.222222222222214,3.2777777777777786,-6.7777777777777715,3.2777777777777786,-6.7777777777777715C3.2777777777777786,-6.7777777777777715,3.2777777777777786,-6.7777777777777715,3.2777777777777786,-6.7777777777777715M9.055555555555557,-5.4444444444444375C8.833333333333334,-5.4444444444444375,8.555555555555557,-5.499999999999993,8.38888888888889,-5.4444444444444375C8.222222222222221,-5.388888888888882,8.055555555555557,-5.333333333333327,7.944444444444445,-5.222222222222214C7.833333333333334,-5.111111111111104,7.722222222222222,-4.888888888888882,7.666666666666667,-4.666666666666659C7.611111111111112,-4.4444444444444375,7.611111111111112,-4.166666666666659,7.611111111111112,-3.7777777777777715C7.611111111111112,-3.7777777777777715,7.611111111111112,3.944444444444451,7.611111111111112,3.944444444444451C7.611111111111112,3.944444444444451,7.611111111111112,4.500000000000007,7.611111111111112,4.500000000000007C7.611111111111112,4.500000000000007,7.555555555555556,4.833333333333339,7.555555555555556,5.000000000000006C7.555555555555556,5.000000000000006,7.555555555555556,5.3888888888888955,7.555555555555556,5.3888888888888955C7.555555555555556,5.3888888888888955,7.500000000000001,5.611111111111118,7.500000000000001,5.7222222222222285C7.500000000000001,5.7222222222222285,7.888888888888889,5.7222222222222285,7.888888888888889,5.7222222222222285C7.888888888888889,5.7222222222222285,8.444444444444445,5.7222222222222285,8.444444444444445,5.7222222222222285C8.444444444444445,5.7222222222222285,8.833333333333334,5.777777777777784,9,5.777777777777784C9,5.777777777777784,9.444444444444445,5.777777777777784,9.444444444444445,5.777777777777784C10.166666666666668,5.777777777777784,10.833333333333334,5.611111111111118,11.333333333333334,5.333333333333339C11.833333333333334,5.0555555555555625,12.277777777777779,4.611111111111118,12.61111111111111,4.111111111111118C12.944444444444445,3.611111111111118,13.166666666666666,3.0555555555555625,13.333333333333334,2.444444444444451C13.5,1.8333333333333401,13.61111111111111,1.1666666666666732,13.61111111111111,0.5000000000000071C13.61111111111111,-0.4999999999999929,13.5,-1.4444444444444375,13.277777777777779,-2.166666666666659C13.055555555555555,-2.888888888888882,12.777777777777779,-3.499999999999993,12.38888888888889,-3.999999999999993C12,-4.499999999999993,11.5,-4.833333333333327,10.944444444444445,-5.055555555555548C10.38888888888889,-5.2777777777777715,9.722222222222221,-5.4444444444444375,9.055555555555557,-5.4444444444444375C9.055555555555557,-5.4444444444444375,9.055555555555557,-5.4444444444444375,9.055555555555557,-5.4444444444444375M26.444444444444443,4.444444444444451C26.611111111111107,4.666666666666673,26.777777777777775,4.833333333333339,26.944444444444443,5.0555555555555625C27.111111111111107,5.277777777777784,27.277777777777775,5.500000000000006,27.388888888888886,5.7222222222222285C27.388888888888886,5.7222222222222285,28.055555555555554,5.7222222222222285,28.055555555555554,5.7222222222222285C28.055555555555554,5.7222222222222285,28.055555555555554,7.2222222222222285,28.055555555555554,7.2222222222222285C28.055555555555554,7.2222222222222285,23.333333333333332,7.2222222222222285,23.333333333333332,7.2222222222222285C23.333333333333332,7.2222222222222285,23.333333333333332,5.944444444444451,23.333333333333332,5.944444444444451C23.555555555555554,5.944444444444451,23.72222222222222,5.8888888888888955,23.833333333333332,5.833333333333339C23.944444444444443,5.777777777777784,24,5.666666666666673,24,5.5555555555555625C24,5.3888888888888955,23.888888888888886,5.166666666666673,23.666666666666664,4.944444444444451C23.666666666666664,4.944444444444451,22.5,3.7222222222222285,22.5,3.7222222222222285C22.5,3.7222222222222285,22.5,3.7222222222222285,22.5,3.7222222222222285C22.5,3.7222222222222285,21.555555555555554,4.833333333333339,21.555555555555554,4.833333333333339C21.5,4.8888888888888955,21.444444444444443,4.8888888888888955,21.388888888888886,5.000000000000006C21.333333333333332,5.111111111111118,21.22222222222222,5.166666666666673,21.11111111111111,5.277777777777784C21,5.3888888888888955,21,5.444444444444451,20.888888888888886,5.5555555555555625C20.888888888888886,5.5555555555555625,20.666666666666664,5.777777777777784,20.666666666666664,5.777777777777784C20.666666666666664,5.777777777777784,20.666666666666664,5.777777777777784,20.666666666666664,5.777777777777784C20.666666666666664,5.777777777777784,21.555555555555554,5.7222222222222285,21.555555555555554,5.7222222222222285C21.555555555555554,5.7222222222222285,21.555555555555554,7.2222222222222285,21.555555555555554,7.2222222222222285C21.555555555555554,7.2222222222222285,18.22222222222222,7.2222222222222285,18.22222222222222,7.2222222222222285C18.22222222222222,7.2222222222222285,18.22222222222222,5.944444444444451,18.22222222222222,5.944444444444451C18.5,5.833333333333339,18.777777777777775,5.666666666666673,19,5.444444444444451C19.22222222222222,5.2222222222222285,19.5,4.944444444444451,19.777777777777775,4.611111111111118C19.777777777777775,4.611111111111118,21.5,2.666666666666673,21.5,2.666666666666673C21.5,2.666666666666673,19.555555555555554,0.33333333333334014,19.555555555555554,0.33333333333334014C19.444444444444443,0.16666666666667318,19.444444444444443,0.22222222222222854,19.277777777777775,7.105427357601002e-15C19.11111111111111,-0.22222222222221522,19.055555555555554,-0.22222222222221522,18.888888888888886,-0.44444444444443754C18.777777777777775,-0.6111111111111045,18.72222222222222,-0.7222222222222152,18.61111111111111,-0.8888888888888822C18.5,-1.0555555555555483,18.444444444444443,-1.1666666666666607,18.388888888888886,-1.2777777777777715C18.388888888888886,-1.2777777777777715,17.833333333333332,-1.2777777777777715,17.833333333333332,-1.2777777777777715C17.833333333333332,-1.2777777777777715,17.833333333333332,-2.7777777777777715,17.833333333333332,-2.7777777777777715C17.833333333333332,-2.7777777777777715,22.277777777777775,-2.7777777777777715,22.277777777777775,-2.7777777777777715C22.277777777777775,-2.7777777777777715,22.277777777777775,-1.499999999999993,22.277777777777775,-1.499999999999993C22.111111111111107,-1.499999999999993,21.944444444444443,-1.4444444444444375,21.888888888888886,-1.3888888888888822C21.833333333333332,-1.3333333333333268,21.777777777777775,-1.2777777777777715,21.777777777777775,-1.1666666666666607C21.777777777777775,-1.0555555555555483,21.833333333333332,-0.9444444444444375,21.888888888888886,-0.8333333333333268C21.944444444444443,-0.7222222222222152,22.111111111111107,-0.5555555555555491,22.22222222222222,-0.3888888888888822C22.22222222222222,-0.3888888888888822,23.166666666666664,0.6666666666666732,23.166666666666664,0.6666666666666732C23.166666666666664,0.6666666666666732,23.166666666666664,0.6666666666666732,23.166666666666664,0.6666666666666732C23.166666666666664,0.6666666666666732,23.944444444444443,-0.22222222222221522,23.944444444444443,-0.22222222222221522C23.944444444444443,-0.22222222222221522,24.388888888888886,-0.7777777777777715,24.388888888888886,-0.7777777777777715C24.555555555555554,-0.9444444444444375,24.72222222222222,-1.1666666666666607,24.888888888888886,-1.3333333333333268C24.888888888888886,-1.3333333333333268,24.888888888888886,-1.3333333333333268,24.888888888888886,-1.3333333333333268C24.888888888888886,-1.3333333333333268,23.944444444444443,-1.2777777777777715,23.944444444444443,-1.2777777777777715C23.944444444444443,-1.2777777777777715,23.944444444444443,-2.7777777777777715,23.944444444444443,-2.7777777777777715C23.944444444444443,-2.7777777777777715,27.444444444444443,-2.7777777777777715,27.444444444444443,-2.7777777777777715C27.444444444444443,-2.7777777777777715,27.444444444444443,-1.499999999999993,27.444444444444443,-1.499999999999993C27.055555555555554,-1.3333333333333268,26.72222222222222,-1.1111111111111036,26.388888888888886,-0.8333333333333268C26.055555555555554,-0.5555555555555491,25.72222222222222,-0.27777777777777146,25.444444444444443,0.11111111111111782C25.444444444444443,0.11111111111111782,24.111111111111107,1.7222222222222285,24.111111111111107,1.7222222222222285C24.111111111111107,1.7222222222222285,26.444444444444443,4.444444444444451,26.444444444444443,4.444444444444451M29.61111111111111,-4.055555555555548C29.61111111111111,-4.2777777777777715,29.666666666666668,-4.555555555555548,29.666666666666668,-4.888888888888882C29.666666666666668,-5.222222222222214,29.666666666666668,-5.555555555555548,29.72222222222222,-5.833333333333327C29.72222222222222,-5.833333333333327,28.333333333333332,-5.7777777777777715,28.333333333333332,-5.7777777777777715C28.333333333333332,-5.7777777777777715,28.333333333333332,-7.2777777777777715,28.333333333333332,-7.2777777777777715C28.77777777777778,-7.2777777777777715,29.22222222222222,-7.2777777777777715,29.555555555555557,-7.333333333333327C29.88888888888889,-7.388888888888882,30.166666666666668,-7.4444444444444375,30.444444444444443,-7.499999999999993C30.72222222222222,-7.555555555555548,30.88888888888889,-7.611111111111104,31.055555555555557,-7.666666666666659C31.22222222222222,-7.722222222222214,31.333333333333332,-7.833333333333327,31.38888888888889,-7.888888888888882C31.38888888888889,-7.888888888888882,32.44444444444444,-7.888888888888882,32.44444444444444,-7.888888888888882C32.44444444444444,-7.888888888888882,32.44444444444444,-1.999999999999993,32.44444444444444,-1.999999999999993C32.888888888888886,-2.388888888888882,33.388888888888886,-2.722222222222216,33.833333333333336,-2.888888888888882C34.27777777777778,-3.0555555555555483,34.72222222222222,-3.1111111111111036,35.166666666666664,-3.1111111111111036C35.77777777777778,-3.1111111111111036,36.333333333333336,-2.9444444444444375,36.833333333333336,-2.722222222222216C37.333333333333336,-2.499999999999993,37.72222222222222,-2.166666666666659,38.05555555555556,-1.722222222222216C38.388888888888886,-1.2777777777777715,38.666666666666664,-0.7222222222222152,38.888888888888886,-0.1111111111111045C39.111111111111114,0.5000000000000071,39.22222222222222,1.1666666666666732,39.22222222222222,1.9444444444444509C39.22222222222222,2.777777777777784,39.111111111111114,3.555555555555562,38.888888888888886,4.2222222222222285C38.666666666666664,4.8888888888888955,38.333333333333336,5.444444444444451,37.888888888888886,5.944444444444451C37.44444444444444,6.444444444444451,37,6.833333333333339,36.388888888888886,7.111111111111118C35.77777777777778,7.3888888888888955,35.111111111111114,7.555555555555562,34.333333333333336,7.555555555555562C34.166666666666664,7.555555555555562,33.94444444444444,7.555555555555562,33.72222222222222,7.500000000000006C33.5,7.444444444444451,33.27777777777778,7.444444444444451,33,7.333333333333339C32.72222222222222,7.2222222222222285,32.44444444444444,7.111111111111118,32.166666666666664,6.944444444444451C31.88888888888889,6.777777777777784,31.666666666666668,6.611111111111118,31.444444444444443,6.333333333333339C31.444444444444443,6.333333333333339,31.444444444444443,6.333333333333339,31.444444444444443,6.333333333333339C31.444444444444443,6.333333333333339,30.833333333333332,7.2222222222222285,30.833333333333332,7.2222222222222285C30.833333333333332,7.2222222222222285,29.61111111111111,7.2222222222222285,29.61111111111111,7.2222222222222285C29.61111111111111,7.2222222222222285,29.61111111111111,-4.055555555555548,29.61111111111111,-4.055555555555548C29.61111111111111,-4.055555555555548,29.61111111111111,-4.055555555555548,29.61111111111111,-4.055555555555548M34.05555555555556,-1.2777777777777715C33.72222222222222,-1.2777777777777715,33.44444444444444,-1.222222222222216,33.166666666666664,-1.0555555555555483C32.888888888888886,-0.8888888888888822,32.611111111111114,-0.6666666666666599,32.44444444444444,-0.44444444444443754C32.44444444444444,-0.44444444444443754,32.44444444444444,4.2222222222222285,32.44444444444444,4.2222222222222285C32.44444444444444,4.5555555555555625,32.5,4.8888888888888955,32.611111111111114,5.111111111111118C32.72222222222222,5.333333333333339,32.77777777777778,5.500000000000006,32.94444444444444,5.666666666666673C33.111111111111114,5.833333333333339,33.27777777777778,5.944444444444451,33.44444444444444,6.000000000000006C33.611111111111114,6.0555555555555625,33.833333333333336,6.0555555555555625,34,6.0555555555555625C34.44444444444444,6.0555555555555625,34.833333333333336,6.000000000000006,35.111111111111114,5.777777777777784C35.388888888888886,5.5555555555555625,35.611111111111114,5.2222222222222285,35.77777777777778,4.8888888888888955C35.94444444444444,4.5555555555555625,36.111111111111114,4.111111111111118,36.166666666666664,3.666666666666673C36.22222222222222,3.2222222222222285,36.27777777777778,2.777777777777784,36.27777777777778,2.277777777777785C36.27777777777778,1.8333333333333401,36.27777777777778,1.3888888888888955,36.166666666666664,0.9444444444444509C36.05555555555556,0.5000000000000071,35.94444444444444,0.11111111111111782,35.77777777777778,-0.22222222222221522C35.611111111111114,-0.5555555555555491,35.333333333333336,-0.7777777777777715,35.05555555555556,-0.9999999999999929C34.77777777777778,-1.222222222222216,34.44444444444444,-1.2777777777777715,34.05555555555556,-1.2777777777777715C34.05555555555556,-1.2777777777777715,34.05555555555556,-1.2777777777777715,34.05555555555556,-1.2777777777777715M46.61111111111111,2.166666666666673C46.61111111111111,2.166666666666673,46.166666666666664,2.166666666666673,46.166666666666664,2.166666666666673C46.166666666666664,2.166666666666673,45.83333333333333,2.166666666666673,45.83333333333333,2.166666666666673C45.83333333333333,2.166666666666673,45.49999999999999,2.166666666666673,45.49999999999999,2.166666666666673C45.49999999999999,2.166666666666673,45.166666666666664,2.166666666666673,45.166666666666664,2.166666666666673C45.166666666666664,2.166666666666673,45.166666666666664,3.944444444444451,45.166666666666664,3.944444444444451C45.166666666666664,4.333333333333339,45.11111111111111,4.666666666666673,45.11111111111111,5.000000000000006C45.11111111111111,5.333333333333339,45.05555555555555,5.5555555555555625,45.05555555555555,5.7222222222222285C45.05555555555555,5.7222222222222285,46.77777777777777,5.666666666666673,46.77777777777777,5.666666666666673C46.77777777777777,5.666666666666673,46.77777777777777,7.2222222222222285,46.77777777777777,7.2222222222222285C46.77777777777777,7.2222222222222285,40.83333333333333,7.2222222222222285,40.83333333333333,7.2222222222222285C40.83333333333333,7.2222222222222285,40.83333333333333,5.8888888888888955,40.83333333333333,5.8888888888888955C41.05555555555555,5.8888888888888955,41.27777777777777,5.8888888888888955,41.44444444444444,5.833333333333339C41.61111111111111,5.777777777777784,41.77777777777777,5.7222222222222285,41.888888888888886,5.611111111111118C41.99999999999999,5.500000000000006,42.11111111111111,5.333333333333339,42.166666666666664,5.111111111111118C42.222222222222214,4.8888888888888955,42.27777777777777,4.5555555555555625,42.27777777777777,4.166666666666673C42.27777777777777,4.166666666666673,42.27777777777777,-3.499999999999993,42.27777777777777,-3.499999999999993C42.27777777777777,-3.499999999999993,42.27777777777777,-4.055555555555548,42.27777777777777,-4.055555555555548C42.27777777777777,-4.055555555555548,42.27777777777777,-4.555555555555548,42.27777777777777,-4.555555555555548C42.27777777777777,-4.555555555555548,42.27777777777777,-4.999999999999993,42.27777777777777,-4.999999999999993C42.27777777777777,-4.999999999999993,42.33333333333333,-5.166666666666659,42.33333333333333,-5.2777777777777715C42.33333333333333,-5.2777777777777715,40.83333333333333,-5.222222222222214,40.83333333333333,-5.222222222222214C40.83333333333333,-5.222222222222214,40.83333333333333,-6.7777777777777715,40.83333333333333,-6.7777777777777715C40.83333333333333,-6.7777777777777715,46.49999999999999,-6.833333333333327,46.49999999999999,-6.833333333333327C47.388888888888886,-6.833333333333327,48.16666666666666,-6.722222222222214,48.888888888888886,-6.555555555555548C49.61111111111111,-6.388888888888882,50.16666666666666,-6.111111111111104,50.66666666666666,-5.7777777777777715C51.16666666666666,-5.4444444444444375,51.55555555555555,-4.999999999999993,51.83333333333333,-4.4444444444444375C52.11111111111111,-3.888888888888882,52.27777777777777,-3.222222222222216,52.27777777777777,-2.4444444444444375C52.27777777777777,-1.8888888888888822,52.16666666666666,-1.3333333333333268,51.94444444444444,-0.7777777777777715C51.722222222222214,-0.22222222222221522,51.33333333333333,0.22222222222222854,50.888888888888886,0.6666666666666732C50.44444444444444,1.1111111111111178,49.83333333333333,1.4444444444444509,49.11111111111111,1.7222222222222285C48.388888888888886,2.000000000000006,47.61111111111111,2.111111111111118,46.61111111111111,2.166666666666673C46.61111111111111,2.166666666666673,46.61111111111111,2.166666666666673,46.61111111111111,2.166666666666673M46.05555555555555,0.7222222222222285C46.61111111111111,0.7222222222222285,47.05555555555555,0.6666666666666732,47.44444444444444,0.5000000000000071C47.83333333333333,0.33333333333334014,48.16666666666666,0.16666666666667318,48.44444444444444,-0.1111111111111045C48.722222222222214,-0.3888888888888822,48.888888888888886,-0.7222222222222152,48.99999999999999,-1.1111111111111036C49.11111111111111,-1.499999999999993,49.16666666666666,-1.9444444444444375,49.16666666666666,-2.4444444444444375C49.16666666666666,-2.888888888888882,49.16666666666666,-3.2777777777777715,49.05555555555555,-3.6111111111111036C48.94444444444444,-3.9444444444444375,48.888888888888886,-4.166666666666659,48.722222222222214,-4.388888888888882C48.55555555555555,-4.611111111111104,48.388888888888886,-4.833333333333327,48.222222222222214,-4.9444444444444375C48.05555555555555,-5.055555555555548,47.888888888888886,-5.166666666666659,47.666666666666664,-5.222222222222214C47.44444444444444,-5.2777777777777715,47.27777777777777,-5.388888888888882,47.05555555555555,-5.388888888888882C47.05555555555555,-5.388888888888882,46.49999999999999,-5.388888888888882,46.49999999999999,-5.388888888888882C46.27777777777777,-5.388888888888882,46.11111111111111,-5.4444444444444375,45.94444444444444,-5.388888888888882C45.77777777777777,-5.333333333333327,45.61111111111111,-5.2777777777777715,45.49999999999999,-5.166666666666659C45.388888888888886,-5.055555555555548,45.27777777777777,-4.888888888888882,45.222222222222214,-4.666666666666659C45.166666666666664,-4.4444444444444375,45.166666666666664,-4.166666666666659,45.166666666666664,-3.833333333333327C45.166666666666664,-3.833333333333327,45.166666666666664,0.6666666666666732,45.166666666666664,0.6666666666666732C45.388888888888886,0.6666666666666732,45.388888888888886,0.7222222222222285,45.61111111111111,0.7222222222222285C45.61111111111111,0.7222222222222285,46.05555555555555,0.7222222222222285,46.05555555555555,0.7222222222222285C46.05555555555555,0.7222222222222285,46.05555555555555,0.7222222222222285,46.05555555555555,0.7222222222222285M57.05555555555555,4.000000000000007C57.05555555555555,4.000000000000007,57.05555555555555,4.333333333333339,57.05555555555555,4.333333333333339C57.05555555555555,4.333333333333339,57.05555555555555,4.777777777777784,57.05555555555555,4.777777777777784C57.05555555555555,4.777777777777784,57.05555555555555,5.277777777777784,57.05555555555555,5.277777777777784C57.05555555555555,5.277777777777784,56.99999999999999,5.611111111111118,56.99999999999999,5.777777777777784C56.99999999999999,5.777777777777784,58.27777777777777,5.7222222222222285,58.27777777777777,5.7222222222222285C58.27777777777777,5.7222222222222285,58.27777777777777,7.2222222222222285,58.27777777777777,7.2222222222222285C58.27777777777777,7.2222222222222285,53.05555555555555,7.2222222222222285,53.05555555555555,7.2222222222222285C53.05555555555555,7.2222222222222285,53.05555555555555,5.944444444444451,53.05555555555555,5.944444444444451C53.33333333333333,5.944444444444451,53.55555555555555,5.8888888888888955,53.722222222222214,5.777777777777784C53.888888888888886,5.666666666666673,53.99999999999999,5.611111111111118,54.05555555555555,5.444444444444451C54.11111111111111,5.277777777777784,54.222222222222214,5.111111111111118,54.222222222222214,4.8888888888888955C54.222222222222214,4.8888888888888955,54.222222222222214,4.166666666666673,54.222222222222214,4.166666666666673C54.222222222222214,4.166666666666673,54.222222222222214,-4.055555555555548,54.222222222222214,-4.055555555555548C54.222222222222214,-4.2777777777777715,54.27777777777777,-4.555555555555548,54.27777777777777,-4.888888888888882C54.27777777777777,-5.222222222222214,54.27777777777777,-5.555555555555548,54.33333333333333,-5.833333333333327C54.33333333333333,-5.833333333333327,52.944444444444436,-5.7777777777777715,52.944444444444436,-5.7777777777777715C52.944444444444436,-5.7777777777777715,52.944444444444436,-7.2777777777777715,52.944444444444436,-7.2777777777777715C53.388888888888886,-7.2777777777777715,53.83333333333333,-7.2777777777777715,54.166666666666664,-7.333333333333327C54.49999999999999,-7.388888888888882,54.77777777777777,-7.4444444444444375,55.05555555555555,-7.499999999999993C55.33333333333333,-7.555555555555548,55.49999999999999,-7.611111111111104,55.66666666666666,-7.666666666666659C55.83333333333333,-7.722222222222214,55.944444444444436,-7.833333333333327,55.99999999999999,-7.888888888888882C55.99999999999999,-7.888888888888882,57.05555555555555,-7.888888888888882,57.05555555555555,-7.888888888888882C57.05555555555555,-7.888888888888882,57.05555555555555,4.000000000000007,57.05555555555555,4.000000000000007C57.05555555555555,4.000000000000007,57.05555555555555,4.000000000000007,57.05555555555555,4.000000000000007M64.94444444444444,2.611111111111118C64.55555555555556,2.666666666666673,64.22222222222223,2.7222222222222285,63.888888888888886,2.83333333333334C63.55555555555556,2.944444444444451,63.22222222222222,3.0555555555555625,63,3.2222222222222285C62.77777777777778,3.3888888888888955,62.611111111111114,3.555555555555562,62.44444444444444,3.7777777777777843C62.27777777777778,4.000000000000007,62.22222222222222,4.277777777777784,62.22222222222222,4.5555555555555625C62.22222222222222,4.7222222222222285,62.27777777777778,4.8888888888888955,62.333333333333336,5.000000000000006C62.388888888888886,5.111111111111118,62.44444444444444,5.2222222222222285,62.55555555555556,5.333333333333339C62.666666666666664,5.444444444444451,62.833333333333336,5.500000000000006,62.94444444444444,5.5555555555555625C63.05555555555556,5.611111111111118,63.166666666666664,5.611111111111118,63.333333333333336,5.611111111111118C63.666666666666664,5.611111111111118,63.94444444444444,5.500000000000006,64.22222222222223,5.3888888888888955C64.5,5.277777777777784,64.72222222222223,5.0555555555555625,64.94444444444444,4.833333333333339C64.94444444444444,4.833333333333339,64.94444444444444,2.611111111111118,64.94444444444444,2.611111111111118C64.94444444444444,2.611111111111118,64.94444444444444,2.611111111111118,64.94444444444444,2.611111111111118M59.833333333333336,-0.44444444444443754C59.833333333333336,-0.8333333333333268,59.94444444444444,-1.222222222222216,60.166666666666664,-1.5555555555555483C60.38888888888889,-1.8888888888888822,60.666666666666664,-2.166666666666659,61.05555555555556,-2.388888888888882C61.44444444444444,-2.6111111111111036,61.888888888888886,-2.7777777777777715,62.388888888888886,-2.888888888888882C62.888888888888886,-2.999999999999993,63.44444444444444,-3.1111111111111036,64.05555555555556,-3.1111111111111036C64.66666666666667,-3.1111111111111036,65.16666666666667,-3.0555555555555483,65.61111111111111,-2.888888888888882C66.05555555555556,-2.722222222222216,66.44444444444444,-2.499999999999993,66.77777777777777,-2.166666666666659C67.11111111111111,-1.8333333333333268,67.33333333333333,-1.499999999999993,67.5,-0.9999999999999929C67.66666666666667,-0.4999999999999929,67.72222222222223,0.055555555555562464,67.72222222222223,0.7222222222222285C67.72222222222223,0.7222222222222285,67.72222222222223,1.6111111111111178,67.72222222222223,1.6111111111111178C67.72222222222223,1.6111111111111178,67.72222222222223,2.3888888888888955,67.72222222222223,2.3888888888888955C67.72222222222223,2.3888888888888955,67.72222222222223,3.111111111111118,67.72222222222223,3.111111111111118C67.72222222222223,3.111111111111118,67.72222222222223,4.000000000000007,67.72222222222223,4.000000000000007C67.72222222222223,4.000000000000007,67.72222222222223,4.333333333333339,67.72222222222223,4.333333333333339C67.72222222222223,4.333333333333339,67.72222222222223,4.777777777777784,67.72222222222223,4.777777777777784C67.72222222222223,4.777777777777784,67.66666666666667,5.111111111111118,67.66666666666667,5.277777777777784C67.66666666666667,5.277777777777784,67.66666666666667,5.777777777777784,67.66666666666667,5.777777777777784C67.66666666666667,5.777777777777784,68.94444444444444,5.7222222222222285,68.94444444444444,5.7222222222222285C68.94444444444444,5.7222222222222285,68.94444444444444,7.2222222222222285,68.94444444444444,7.2222222222222285C68.94444444444444,7.2222222222222285,65.16666666666667,7.2222222222222285,65.16666666666667,7.2222222222222285C65.16666666666667,7.055555555555562,65.11111111111111,6.833333333333339,65.11111111111111,6.7222222222222285C65.11111111111111,6.611111111111118,65.05555555555556,6.444444444444451,65.05555555555556,6.277777777777784C65.05555555555556,6.277777777777784,65.05555555555556,6.277777777777784,65.05555555555556,6.277777777777784C64.61111111111111,6.7222222222222285,64.11111111111111,7.111111111111118,63.611111111111114,7.277777777777784C63.111111111111114,7.444444444444451,62.611111111111114,7.555555555555562,62.111111111111114,7.555555555555562C61.666666666666664,7.555555555555562,61.27777777777778,7.444444444444451,60.94444444444444,7.333333333333339C60.611111111111114,7.2222222222222285,60.333333333333336,7.000000000000006,60.111111111111114,6.777777777777784C59.88888888888889,6.555555555555562,59.666666666666664,6.277777777777784,59.55555555555556,5.944444444444451C59.44444444444444,5.611111111111118,59.38888888888889,5.277777777777784,59.38888888888889,4.8888888888888955C59.38888888888889,4.444444444444451,59.44444444444444,4.0555555555555625,59.611111111111114,3.7222222222222285C59.77777777777778,3.3888888888888955,59.94444444444444,3.111111111111118,60.22222222222222,2.83333333333334C60.5,2.5555555555555625,60.833333333333336,2.33333333333334,61.166666666666664,2.111111111111118C61.5,1.8888888888888955,61.94444444444444,1.7777777777777848,62.333333333333336,1.6666666666666732C62.72222222222222,1.5555555555555625,63.166666666666664,1.3888888888888955,63.611111111111114,1.3333333333333401C64.05555555555556,1.2777777777777848,64.5,1.2222222222222285,64.94444444444444,1.2222222222222285C64.94444444444444,1.2222222222222285,64.94444444444444,0.16666666666667318,64.94444444444444,0.16666666666667318C64.94444444444444,-0.1111111111111045,64.94444444444444,-0.3333333333333268,64.88888888888889,-0.5555555555555491C64.83333333333333,-0.7777777777777715,64.77777777777777,-0.9999999999999929,64.66666666666667,-1.1666666666666607C64.55555555555556,-1.3333333333333268,64.38888888888889,-1.4444444444444375,64.22222222222223,-1.5555555555555483C64.05555555555556,-1.6666666666666607,63.77777777777778,-1.6666666666666607,63.5,-1.6666666666666607C63.22222222222222,-1.6666666666666607,63,-1.6111111111111036,62.77777777777778,-1.499999999999993C62.55555555555556,-1.3888888888888822,62.333333333333336,-1.2777777777777715,62.166666666666664,-1.1111111111111036C62.27777777777778,-0.9999999999999929,62.27777777777778,-0.8888888888888822,62.333333333333336,-0.7222222222222152C62.388888888888886,-0.5555555555555491,62.388888888888886,-0.44444444444443754,62.388888888888886,-0.3333333333333268C62.388888888888886,-0.16666666666665986,62.388888888888886,-0.05555555555554914,62.333333333333336,0.11111111111111782C62.27777777777778,0.2777777777777848,62.166666666666664,0.3888888888888955,62.05555555555556,0.5000000000000071C61.94444444444444,0.6111111111111178,61.833333333333336,0.7222222222222285,61.666666666666664,0.7777777777777848C61.5,0.8333333333333401,61.27777777777778,0.8888888888888955,61.05555555555556,0.8888888888888955C60.833333333333336,0.8888888888888955,60.666666666666664,0.8333333333333401,60.5,0.7777777777777848C60.333333333333336,0.7222222222222285,60.22222222222222,0.6111111111111178,60.111111111111114,0.5000000000000071C60,0.3888888888888955,59.94444444444444,0.22222222222222854,59.88888888888889,0.055555555555562464C59.833333333333336,-0.1111111111111045,59.833333333333336,-0.27777777777777146,59.833333333333336,-0.44444444444443754C59.833333333333336,-0.44444444444443754,59.833333333333336,-0.44444444444443754,59.833333333333336,-0.44444444444443754M80.33333333333334,4.000000000000007C80.33333333333334,4.000000000000007,80.33333333333334,4.333333333333339,80.33333333333334,4.333333333333339C80.33333333333334,4.333333333333339,80.33333333333334,4.777777777777784,80.33333333333334,4.777777777777784C80.33333333333334,4.777777777777784,80.27777777777779,5.111111111111118,80.27777777777779,5.277777777777784C80.27777777777779,5.277777777777784,80.27777777777779,5.777777777777784,80.27777777777779,5.777777777777784C80.27777777777779,5.777777777777784,81.55555555555556,5.7222222222222285,81.55555555555556,5.7222222222222285C81.55555555555556,5.7222222222222285,81.55555555555556,7.2222222222222285,81.55555555555556,7.2222222222222285C81.55555555555556,7.2222222222222285,76.33333333333334,7.2222222222222285,76.33333333333334,7.2222222222222285C76.33333333333334,7.2222222222222285,76.33333333333334,5.944444444444451,76.33333333333334,5.944444444444451C76.61111111111111,5.944444444444451,76.83333333333334,5.8888888888888955,77,5.777777777777784C77.16666666666667,5.666666666666673,77.27777777777779,5.611111111111118,77.33333333333334,5.444444444444451C77.3888888888889,5.277777777777784,77.5,5.111111111111118,77.5,4.8888888888888955C77.5,4.8888888888888955,77.5,4.166666666666673,77.5,4.166666666666673C77.5,4.166666666666673,77.5,1.2777777777777848,77.5,1.2777777777777848C77.5,0.3888888888888955,77.3888888888889,-0.27777777777777146,77.11111111111111,-0.6666666666666599C76.83333333333334,-1.0555555555555483,76.44444444444446,-1.2777777777777715,75.8888888888889,-1.2777777777777715C75.55555555555556,-1.2777777777777715,75.22222222222223,-1.222222222222216,74.8888888888889,-1.0555555555555483C74.55555555555556,-0.8888888888888822,74.27777777777779,-0.7222222222222152,74.05555555555556,-0.4999999999999929C74.05555555555556,-0.4999999999999929,74.05555555555556,4.000000000000007,74.05555555555556,4.000000000000007C74.05555555555556,4.000000000000007,74.05555555555556,4.333333333333339,74.05555555555556,4.333333333333339C74.05555555555556,4.333333333333339,74.05555555555556,4.777777777777784,74.05555555555556,4.777777777777784C74.05555555555556,4.777777777777784,74,5.111111111111118,74,5.277777777777784C74,5.277777777777784,74,5.777777777777784,74,5.777777777777784C74,5.777777777777784,75.27777777777779,5.7222222222222285,75.27777777777779,5.7222222222222285C75.27777777777779,5.7222222222222285,75.27777777777779,7.2222222222222285,75.27777777777779,7.2222222222222285C75.27777777777779,7.2222222222222285,70.05555555555556,7.2222222222222285,70.05555555555556,7.2222222222222285C70.05555555555556,7.2222222222222285,70.05555555555556,5.944444444444451,70.05555555555556,5.944444444444451C70.33333333333334,5.944444444444451,70.5,5.8888888888888955,70.66666666666667,5.777777777777784C70.83333333333334,5.666666666666673,71,5.611111111111118,71.05555555555556,5.444444444444451C71.11111111111111,5.277777777777784,71.22222222222223,5.111111111111118,71.22222222222223,4.8888888888888955C71.22222222222223,4.8888888888888955,71.22222222222223,4.166666666666673,71.22222222222223,4.166666666666673C71.22222222222223,4.166666666666673,71.22222222222223,0.7777777777777848,71.22222222222223,0.7777777777777848C71.22222222222223,0.7777777777777848,71.22222222222223,-0.05555555555554914,71.22222222222223,-0.05555555555554914C71.22222222222223,-0.05555555555554914,71.22222222222223,-0.6666666666666599,71.27777777777779,-0.9444444444444375C71.27777777777779,-0.9444444444444375,69.8888888888889,-0.8888888888888822,69.8888888888889,-0.8888888888888822C69.8888888888889,-0.8888888888888822,69.8888888888889,-2.388888888888882,69.8888888888889,-2.388888888888882C70.33333333333334,-2.388888888888882,70.77777777777779,-2.388888888888882,71.11111111111111,-2.4444444444444375C71.44444444444446,-2.499999999999993,71.77777777777779,-2.499999999999993,72.05555555555556,-2.5555555555555483C72.33333333333334,-2.6111111111111036,72.44444444444446,-2.722222222222216,72.61111111111111,-2.7777777777777715C72.77777777777779,-2.833333333333327,72.94444444444446,-2.9444444444444375,73,-2.999999999999993C73,-2.999999999999993,73.94444444444446,-2.999999999999993,73.94444444444446,-2.999999999999993C73.94444444444446,-2.999999999999993,74.05555555555556,-1.999999999999993,74.05555555555556,-1.999999999999993C74.05555555555556,-1.999999999999993,74.05555555555556,-1.999999999999993,74.05555555555556,-1.999999999999993C74.27777777777779,-2.166666666666659,74.44444444444446,-2.2777777777777715,74.72222222222223,-2.388888888888882C75,-2.499999999999993,75.22222222222223,-2.666666666666659,75.5,-2.7777777777777715C75.77777777777779,-2.888888888888882,76,-2.9444444444444375,76.27777777777779,-2.999999999999993C76.55555555555556,-3.0555555555555483,76.72222222222223,-3.1111111111111036,76.94444444444446,-3.1111111111111036C77.55555555555556,-3.1111111111111036,78.05555555555556,-2.999999999999993,78.5,-2.833333333333327C78.94444444444446,-2.666666666666659,79.27777777777779,-2.388888888888882,79.55555555555556,-2.0555555555555483C79.83333333333334,-1.722222222222216,80.05555555555556,-1.222222222222216,80.16666666666667,-0.6666666666666599C80.27777777777779,-0.1111111111111045,80.33333333333334,0.5555555555555625,80.33333333333334,1.3333333333333401C80.33333333333334,1.3333333333333401,80.33333333333334,4.000000000000007,80.33333333333334,4.000000000000007C80.33333333333334,4.000000000000007,80.33333333333334,4.000000000000007,80.33333333333334,4.000000000000007M88.7222222222222,2.166666666666673C88.7222222222222,2.166666666666673,88.27777777777776,2.166666666666673,88.27777777777776,2.166666666666673C88.27777777777776,2.166666666666673,87.94444444444443,2.166666666666673,87.94444444444443,2.166666666666673C87.94444444444443,2.166666666666673,87.6111111111111,2.166666666666673,87.6111111111111,2.166666666666673C87.6111111111111,2.166666666666673,87.27777777777776,2.166666666666673,87.27777777777776,2.166666666666673C87.27777777777776,2.166666666666673,87.27777777777776,3.944444444444451,87.27777777777776,3.944444444444451C87.27777777777776,4.333333333333339,87.2222222222222,4.666666666666673,87.2222222222222,5.000000000000006C87.2222222222222,5.333333333333339,87.16666666666666,5.5555555555555625,87.16666666666666,5.7222222222222285C87.16666666666666,5.7222222222222285,88.88888888888887,5.666666666666673,88.88888888888887,5.666666666666673C88.88888888888887,5.666666666666673,88.88888888888887,7.2222222222222285,88.88888888888887,7.2222222222222285C88.88888888888887,7.2222222222222285,82.94444444444443,7.2222222222222285,82.94444444444443,7.2222222222222285C82.94444444444443,7.2222222222222285,82.94444444444443,5.8888888888888955,82.94444444444443,5.8888888888888955C83.16666666666666,5.8888888888888955,83.38888888888887,5.8888888888888955,83.55555555555554,5.833333333333339C83.7222222222222,5.777777777777784,83.88888888888887,5.7222222222222285,83.99999999999999,5.611111111111118C84.1111111111111,5.500000000000006,84.2222222222222,5.333333333333339,84.27777777777776,5.111111111111118C84.33333333333331,4.8888888888888955,84.38888888888887,4.5555555555555625,84.38888888888887,4.166666666666673C84.38888888888887,4.166666666666673,84.38888888888887,-3.499999999999993,84.38888888888887,-3.499999999999993C84.38888888888887,-3.499999999999993,84.38888888888887,-4.055555555555548,84.38888888888887,-4.055555555555548C84.38888888888887,-4.055555555555548,84.38888888888887,-4.555555555555548,84.38888888888887,-4.555555555555548C84.38888888888887,-4.555555555555548,84.38888888888887,-4.999999999999993,84.38888888888887,-4.999999999999993C84.38888888888887,-4.999999999999993,84.44444444444443,-5.166666666666659,84.44444444444443,-5.2777777777777715C84.44444444444443,-5.2777777777777715,82.94444444444443,-5.222222222222214,82.94444444444443,-5.222222222222214C82.94444444444443,-5.222222222222214,82.94444444444443,-6.7777777777777715,82.94444444444443,-6.7777777777777715C82.94444444444443,-6.7777777777777715,88.6111111111111,-6.833333333333327,88.6111111111111,-6.833333333333327C89.49999999999999,-6.833333333333327,90.27777777777776,-6.722222222222214,90.99999999999999,-6.555555555555548C91.7222222222222,-6.388888888888882,92.27777777777776,-6.111111111111104,92.77777777777776,-5.7777777777777715C93.27777777777776,-5.4444444444444375,93.66666666666666,-4.999999999999993,93.94444444444443,-4.4444444444444375C94.2222222222222,-3.888888888888882,94.38888888888887,-3.222222222222216,94.38888888888887,-2.4444444444444375C94.38888888888887,-1.8888888888888822,94.27777777777776,-1.3333333333333268,94.05555555555554,-0.7777777777777715C93.83333333333331,-0.22222222222221522,93.44444444444443,0.22222222222222854,92.99999999999999,0.6666666666666732C92.55555555555554,1.1111111111111178,91.94444444444443,1.4444444444444509,91.2222222222222,1.7222222222222285C90.49999999999999,2.000000000000006,89.7222222222222,2.111111111111118,88.7222222222222,2.166666666666673C88.7222222222222,2.166666666666673,88.7222222222222,2.166666666666673,88.7222222222222,2.166666666666673M88.16666666666666,0.7222222222222285C88.7222222222222,0.7222222222222285,89.16666666666666,0.6666666666666732,89.55555555555554,0.5000000000000071C89.94444444444443,0.33333333333334014,90.27777777777776,0.16666666666667318,90.55555555555554,-0.1111111111111045C90.83333333333331,-0.3888888888888822,90.99999999999999,-0.7222222222222152,91.1111111111111,-1.1111111111111036C91.2222222222222,-1.499999999999993,91.27777777777776,-1.9444444444444375,91.27777777777776,-2.4444444444444375C91.27777777777776,-2.888888888888882,91.27777777777776,-3.2777777777777715,91.16666666666666,-3.6111111111111036C91.05555555555554,-3.9444444444444375,90.99999999999999,-4.166666666666659,90.83333333333331,-4.388888888888882C90.66666666666666,-4.611111111111104,90.49999999999999,-4.833333333333327,90.33333333333331,-4.9444444444444375C90.16666666666666,-5.055555555555548,89.99999999999999,-5.166666666666659,89.77777777777776,-5.222222222222214C89.55555555555554,-5.2777777777777715,89.38888888888887,-5.388888888888882,89.16666666666666,-5.388888888888882C89.16666666666666,-5.388888888888882,88.6111111111111,-5.388888888888882,88.6111111111111,-5.388888888888882C88.38888888888887,-5.388888888888882,88.2222222222222,-5.4444444444444375,88.05555555555554,-5.388888888888882C87.88888888888887,-5.333333333333327,87.7222222222222,-5.2777777777777715,87.6111111111111,-5.166666666666659C87.49999999999999,-5.055555555555548,87.38888888888887,-4.888888888888882,87.33333333333331,-4.666666666666659C87.27777777777776,-4.4444444444444375,87.27777777777776,-4.166666666666659,87.27777777777776,-3.833333333333327C87.27777777777776,-3.833333333333327,87.27777777777776,0.6666666666666732,87.27777777777776,0.6666666666666732C87.49999999999999,0.6666666666666732,87.49999999999999,0.7222222222222285,87.7222222222222,0.7222222222222285C87.7222222222222,0.7222222222222285,88.16666666666666,0.7222222222222285,88.16666666666666,0.7222222222222285C88.16666666666666,0.7222222222222285,88.16666666666666,0.7222222222222285,88.16666666666666,0.7222222222222285M102.38888888888889,-3.1111111111111036C102.6111111111111,-3.1111111111111036,102.83333333333333,-3.0555555555555483,103.05555555555554,-2.999999999999993C103.27777777777777,-2.9444444444444375,103.44444444444443,-2.833333333333327,103.6111111111111,-2.722222222222216C103.77777777777777,-2.6111111111111036,103.88888888888889,-2.388888888888882,103.99999999999999,-2.166666666666659C104.1111111111111,-1.9444444444444375,104.16666666666666,-1.722222222222216,104.16666666666666,-1.4444444444444375C104.16666666666666,-1.2777777777777715,104.1111111111111,-1.1111111111111036,104.05555555555554,-0.9444444444444375C103.99999999999999,-0.7777777777777715,103.94444444444443,-0.6111111111111045,103.83333333333333,-0.4999999999999929C103.72222222222221,-0.3888888888888822,103.55555555555554,-0.27777777777777146,103.38888888888889,-0.16666666666665986C103.22222222222221,-0.05555555555554914,102.99999999999999,-0.05555555555554914,102.72222222222221,-0.05555555555554914C102.6111111111111,-0.05555555555554914,102.49999999999999,-0.05555555555554914,102.33333333333333,-0.1111111111111045C102.16666666666666,-0.16666666666665986,102.05555555555554,-0.16666666666665986,101.94444444444443,-0.27777777777777146C101.83333333333333,-0.3888888888888822,101.72222222222221,-0.44444444444443754,101.6111111111111,-0.6111111111111045C101.49999999999999,-0.7777777777777715,101.44444444444443,-0.9999999999999929,101.44444444444443,-1.222222222222216C101.22222222222221,-1.222222222222216,101.05555555555554,-1.1111111111111036,100.83333333333333,-0.9999999999999929C100.6111111111111,-0.8888888888888822,100.44444444444443,-0.7222222222222152,100.27777777777777,-0.4999999999999929C100.1111111111111,-0.27777777777777146,99.88888888888889,-0.1111111111111045,99.77777777777777,0.11111111111111782C99.66666666666666,0.33333333333334014,99.55555555555554,0.5555555555555625,99.49999999999999,0.7222222222222285C99.49999999999999,0.7222222222222285,99.49999999999999,4.000000000000007,99.49999999999999,4.000000000000007C99.49999999999999,4.000000000000007,99.49999999999999,4.333333333333339,99.49999999999999,4.333333333333339C99.49999999999999,4.333333333333339,99.49999999999999,4.777777777777784,99.49999999999999,4.777777777777784C99.49999999999999,4.777777777777784,99.44444444444443,5.111111111111118,99.44444444444443,5.277777777777784C99.44444444444443,5.277777777777784,99.44444444444443,5.777777777777784,99.44444444444443,5.777777777777784C99.44444444444443,5.777777777777784,100.72222222222221,5.7222222222222285,100.72222222222221,5.7222222222222285C100.72222222222221,5.7222222222222285,100.72222222222221,7.2222222222222285,100.72222222222221,7.2222222222222285C100.72222222222221,7.2222222222222285,95.49999999999999,7.2222222222222285,95.49999999999999,7.2222222222222285C95.49999999999999,7.2222222222222285,95.49999999999999,5.944444444444451,95.49999999999999,5.944444444444451C95.77777777777777,5.944444444444451,95.94444444444443,5.8888888888888955,96.1111111111111,5.777777777777784C96.27777777777777,5.666666666666673,96.44444444444443,5.611111111111118,96.49999999999999,5.444444444444451C96.55555555555554,5.277777777777784,96.66666666666666,5.111111111111118,96.66666666666666,4.8888888888888955C96.66666666666666,4.8888888888888955,96.66666666666666,4.166666666666673,96.66666666666666,4.166666666666673C96.66666666666666,4.166666666666673,96.66666666666666,0.7777777777777848,96.66666666666666,0.7777777777777848C96.66666666666666,0.7777777777777848,96.66666666666666,-0.05555555555554914,96.66666666666666,-0.05555555555554914C96.66666666666666,-0.05555555555554914,96.66666666666666,-0.6666666666666599,96.72222222222221,-0.9444444444444375C96.72222222222221,-0.9444444444444375,95.33333333333333,-0.8888888888888822,95.33333333333333,-0.8888888888888822C95.33333333333333,-0.8888888888888822,95.33333333333333,-2.388888888888882,95.33333333333333,-2.388888888888882C95.77777777777777,-2.388888888888882,96.22222222222221,-2.388888888888882,96.55555555555554,-2.4444444444444375C96.88888888888889,-2.499999999999993,97.22222222222221,-2.499999999999993,97.49999999999999,-2.5555555555555483C97.77777777777777,-2.6111111111111036,97.88888888888889,-2.722222222222216,98.05555555555554,-2.7777777777777715C98.22222222222221,-2.833333333333327,98.38888888888889,-2.9444444444444375,98.44444444444443,-2.999999999999993C98.44444444444443,-2.999999999999993,99.38888888888889,-2.999999999999993,99.38888888888889,-2.999999999999993C99.38888888888889,-2.999999999999993,99.49999999999999,-1.2777777777777715,99.49999999999999,-1.2777777777777715C99.49999999999999,-1.2777777777777715,99.49999999999999,-1.2777777777777715,99.49999999999999,-1.2777777777777715C99.6111111111111,-1.4444444444444375,99.83333333333333,-1.6111111111111036,99.99999999999999,-1.8333333333333268C100.16666666666666,-2.0555555555555483,100.38888888888889,-2.2777777777777715,100.6111111111111,-2.4444444444444375C100.83333333333333,-2.6111111111111036,101.16666666666666,-2.7777777777777715,101.44444444444443,-2.888888888888882C101.72222222222221,-2.999999999999993,102.05555555555554,-3.1111111111111036,102.38888888888889,-3.1111111111111036C102.38888888888889,-3.1111111111111036,102.38888888888889,-3.1111111111111036,102.38888888888889,-3.1111111111111036M109.83333333333334,-1.6666666666666607C109.44444444444446,-1.6666666666666607,109.11111111111111,-1.5555555555555483,108.83333333333334,-1.3333333333333268C108.55555555555556,-1.1111111111111036,108.3888888888889,-0.8888888888888822,108.22222222222223,-0.5555555555555491C108.05555555555556,-0.22222222222221522,107.94444444444446,0.16666666666667318,107.8888888888889,0.6111111111111178C107.83333333333334,1.0555555555555625,107.77777777777779,1.4444444444444509,107.77777777777779,1.8888888888888955C107.77777777777779,2.3888888888888955,107.83333333333334,2.944444444444451,107.8888888888889,3.444444444444451C107.94444444444446,3.944444444444451,108.11111111111111,4.3888888888888955,108.27777777777779,4.777777777777784C108.44444444444446,5.166666666666673,108.72222222222223,5.5555555555555625,109,5.777777777777784C109.27777777777779,6.000000000000006,109.61111111111111,6.111111111111118,110,6.111111111111118C110.3888888888889,6.111111111111118,110.72222222222223,6.000000000000006,111,5.777777777777784C111.27777777777779,5.5555555555555625,111.3888888888889,5.277777777777784,111.55555555555556,4.944444444444451C111.72222222222223,4.611111111111118,111.83333333333334,4.277777777777784,111.8888888888889,3.8333333333333397C111.94444444444446,3.3888888888888955,111.94444444444446,3.000000000000006,111.94444444444446,2.5555555555555625C111.94444444444446,2.0555555555555625,111.94444444444446,1.5555555555555625,111.8888888888889,1.0555555555555625C111.83333333333334,0.5555555555555625,111.66666666666667,0.055555555555562464,111.5,-0.3333333333333268C111.33333333333334,-0.7222222222222152,111.11111111111111,-1.0555555555555483,110.83333333333334,-1.3333333333333268C110.55555555555556,-1.6111111111111036,110.22222222222223,-1.6666666666666607,109.83333333333334,-1.6666666666666607C109.83333333333334,-1.6666666666666607,109.83333333333334,-1.6666666666666607,109.83333333333334,-1.6666666666666607M109.8888888888889,-3.1111111111111036C110.61111111111111,-3.1111111111111036,111.27777777777779,-2.9444444444444375,111.8888888888889,-2.722222222222216C112.5,-2.499999999999993,113,-2.166666666666659,113.44444444444446,-1.722222222222216C113.8888888888889,-1.2777777777777715,114.27777777777779,-0.7222222222222152,114.55555555555556,-0.1111111111111045C114.83333333333334,0.5000000000000071,114.8888888888889,1.2777777777777848,114.8888888888889,2.0555555555555625C114.8888888888889,2.8888888888888955,114.77777777777779,3.666666666666673,114.55555555555556,4.333333333333339C114.33333333333334,5.000000000000006,113.94444444444446,5.5555555555555625,113.5,6.0555555555555625C113.05555555555556,6.555555555555562,112.55555555555556,6.8888888888888955,111.94444444444446,7.166666666666673C111.33333333333334,7.444444444444451,110.66666666666667,7.555555555555562,109.94444444444446,7.555555555555562C109.22222222222223,7.555555555555562,108.55555555555556,7.3888888888888955,107.94444444444446,7.166666666666673C107.33333333333334,6.944444444444451,106.72222222222223,6.611111111111118,106.27777777777779,6.166666666666673C105.83333333333334,5.7222222222222285,105.5,5.166666666666673,105.22222222222223,4.5555555555555625C104.94444444444446,3.944444444444451,104.83333333333334,3.2222222222222285,104.83333333333334,2.444444444444451C104.83333333333334,1.6111111111111178,104.94444444444446,0.8333333333333401,105.22222222222223,0.16666666666667318C105.5,-0.4999999999999929,105.8888888888889,-1.0555555555555483,106.33333333333334,-1.5555555555555483C106.77777777777779,-2.0555555555555483,107.33333333333334,-2.4444444444444375,107.94444444444446,-2.722222222222216C108.55555555555556,-2.999999999999993,109.22222222222223,-3.1111111111111036,109.8888888888889,-3.1111111111111036C109.8888888888889,-3.1111111111111036,109.8888888888889,-3.1111111111111036,109.8888888888889,-3.1111111111111036M121.77777777777776,-1.2777777777777715C121.44444444444443,-1.2777777777777715,121.1111111111111,-1.222222222222216,120.83333333333331,-1.0555555555555483C120.55555555555554,-0.8888888888888822,120.33333333333331,-0.7222222222222152,120.16666666666666,-0.44444444444443754C120.16666666666666,-0.44444444444443754,120.16666666666666,5.666666666666673,120.16666666666666,5.666666666666673C120.22222222222221,5.7222222222222285,120.27777777777776,5.777777777777784,120.38888888888887,5.833333333333339C120.49999999999999,5.8888888888888955,120.66666666666666,5.8888888888888955,120.77777777777776,5.944444444444451C120.88888888888887,6.000000000000006,120.99999999999999,6.000000000000006,121.16666666666666,6.000000000000006C121.33333333333331,6.000000000000006,121.44444444444443,6.0555555555555625,121.6111111111111,6.0555555555555625C122.05555555555554,6.0555555555555625,122.44444444444443,5.944444444444451,122.7222222222222,5.7222222222222285C122.99999999999999,5.500000000000006,123.27777777777776,5.2222222222222285,123.44444444444443,4.8888888888888955C123.6111111111111,4.5555555555555625,123.77777777777776,4.111111111111118,123.83333333333331,3.666666666666673C123.88888888888887,3.2222222222222285,123.94444444444443,2.777777777777784,123.94444444444443,2.277777777777785C123.94444444444443,1.8333333333333401,123.94444444444443,1.3888888888888955,123.83333333333331,0.9444444444444509C123.7222222222222,0.5000000000000071,123.6111111111111,0.11111111111111782,123.44444444444443,-0.22222222222221522C123.27777777777776,-0.5555555555555491,123.05555555555554,-0.7777777777777715,122.77777777777776,-0.9999999999999929C122.49999999999999,-1.222222222222216,122.16666666666666,-1.2777777777777715,121.77777777777776,-1.2777777777777715C121.77777777777776,-1.2777777777777715,121.77777777777776,-1.2777777777777715,121.77777777777776,-1.2777777777777715M117.33333333333331,0.7777777777777848C117.33333333333331,0.7777777777777848,117.33333333333331,-0.05555555555554914,117.33333333333331,-0.05555555555554914C117.33333333333331,-0.05555555555554914,117.33333333333331,-0.6666666666666599,117.38888888888887,-0.9444444444444375C117.38888888888887,-0.9444444444444375,115.99999999999999,-0.8888888888888822,115.99999999999999,-0.8888888888888822C115.99999999999999,-0.8888888888888822,115.99999999999999,-2.388888888888882,115.99999999999999,-2.388888888888882C116.44444444444443,-2.388888888888882,116.88888888888887,-2.388888888888882,117.22222222222221,-2.4444444444444375C117.55555555555554,-2.499999999999993,117.83333333333331,-2.499999999999993,118.1111111111111,-2.5555555555555483C118.38888888888887,-2.6111111111111036,118.55555555555554,-2.722222222222216,118.72222222222221,-2.7777777777777715C118.88888888888887,-2.833333333333327,118.99999999999999,-2.9444444444444375,119.05555555555554,-2.999999999999993C119.05555555555554,-2.999999999999993,120.05555555555554,-2.999999999999993,120.05555555555554,-2.999999999999993C120.05555555555554,-2.999999999999993,120.1111111111111,-1.999999999999993,120.1111111111111,-1.999999999999993C120.1111111111111,-1.999999999999993,120.16666666666666,-1.999999999999993,120.16666666666666,-1.999999999999993C120.6111111111111,-2.388888888888882,121.1111111111111,-2.666666666666659,121.55555555555554,-2.833333333333327C121.99999999999999,-2.999999999999993,122.38888888888887,-3.1111111111111036,122.83333333333331,-3.1111111111111036C123.44444444444443,-3.1111111111111036,123.99999999999999,-2.9444444444444375,124.49999999999999,-2.722222222222216C124.99999999999999,-2.499999999999993,125.44444444444443,-2.166666666666659,125.77777777777776,-1.722222222222216C126.1111111111111,-1.2777777777777715,126.38888888888887,-0.7222222222222152,126.6111111111111,-0.1111111111111045C126.83333333333331,0.5000000000000071,126.88888888888887,1.1666666666666732,126.88888888888887,1.9444444444444509C126.88888888888887,2.777777777777784,126.7222222222222,3.555555555555562,126.49999999999999,4.2222222222222285C126.27777777777776,4.8888888888888955,125.94444444444443,5.444444444444451,125.49999999999999,5.944444444444451C125.05555555555554,6.444444444444451,124.55555555555554,6.833333333333339,123.94444444444443,7.111111111111118C123.33333333333331,7.3888888888888955,122.66666666666666,7.555555555555562,121.94444444444443,7.555555555555562C121.55555555555554,7.555555555555562,121.22222222222221,7.500000000000006,120.94444444444443,7.444444444444451C120.66666666666666,7.3888888888888955,120.38888888888887,7.277777777777784,120.16666666666666,7.166666666666673C120.16666666666666,7.166666666666673,120.16666666666666,9.111111111111118,120.16666666666666,9.111111111111118C120.16666666666666,9.111111111111118,120.16666666666666,9.44444444444445,120.16666666666666,9.44444444444445C120.16666666666666,9.44444444444445,120.1111111111111,9.722222222222229,120.1111111111111,9.888888888888895C120.1111111111111,9.888888888888895,120.1111111111111,10.388888888888895,120.1111111111111,10.388888888888895C120.1111111111111,10.388888888888895,120.05555555555554,10.666666666666673,120.05555555555554,10.83333333333334C120.05555555555554,10.83333333333334,121.38888888888887,10.777777777777784,121.38888888888887,10.777777777777784C121.38888888888887,10.777777777777784,121.38888888888887,12.33333333333334,121.38888888888887,12.33333333333334C121.38888888888887,12.33333333333334,116.1111111111111,12.33333333333334,116.1111111111111,12.33333333333334C116.1111111111111,12.33333333333334,116.1111111111111,11.000000000000007,116.1111111111111,11.000000000000007C116.38888888888887,11.000000000000007,116.6111111111111,11.000000000000007,116.77777777777776,10.888888888888895C116.94444444444443,10.777777777777784,117.1111111111111,10.722222222222229,117.16666666666666,10.55555555555556C117.22222222222221,10.388888888888895,117.27777777777776,10.166666666666673,117.27777777777776,9.94444444444445C117.27777777777776,9.722222222222229,117.33333333333331,9.500000000000007,117.33333333333331,9.222222222222229C117.33333333333331,9.222222222222229,117.33333333333331,0.7777777777777848,117.33333333333331,0.7777777777777848C117.33333333333331,0.7777777777777848,117.33333333333331,0.7777777777777848,117.33333333333331,0.7777777777777848M133.2222222222222,-1.6666666666666607C132.94444444444443,-1.6666666666666607,132.66666666666666,-1.6666666666666607,132.44444444444443,-1.5555555555555483C132.2222222222222,-1.4444444444444375,132,-1.2777777777777715,131.83333333333331,-1.0555555555555483C131.66666666666666,-0.8333333333333268,131.5,-0.6111111111111045,131.38888888888889,-0.3333333333333268C131.27777777777777,-0.05555555555554914,131.2222222222222,0.22222222222222854,131.16666666666666,0.5555555555555625C131.16666666666666,0.5555555555555625,134.88888888888889,0.5555555555555625,134.88888888888889,0.5555555555555625C134.88888888888889,0.16666666666667318,134.83333333333331,-0.22222222222221522,134.7222222222222,-0.4999999999999929C134.6111111111111,-0.7777777777777715,134.55555555555554,-0.9999999999999929,134.38888888888889,-1.1666666666666607C134.2222222222222,-1.3333333333333268,134.05555555555554,-1.499999999999993,133.83333333333331,-1.5555555555555483C133.6111111111111,-1.6111111111111036,133.44444444444443,-1.6666666666666607,133.2222222222222,-1.6666666666666607C133.2222222222222,-1.6666666666666607,133.2222222222222,-1.6666666666666607,133.2222222222222,-1.6666666666666607M137.6111111111111,1.8333333333333401C137.6111111111111,1.8333333333333401,131.05555555555554,1.9444444444444509,131.05555555555554,1.9444444444444509C131.05555555555554,2.500000000000006,131.1111111111111,3.0555555555555625,131.2222222222222,3.5000000000000067C131.33333333333331,3.944444444444451,131.44444444444443,4.333333333333339,131.66666666666666,4.666666666666673C131.88888888888889,5.000000000000006,132.2222222222222,5.277777777777784,132.55555555555554,5.444444444444451C132.88888888888889,5.611111111111118,133.38888888888889,5.777777777777784,133.88888888888889,5.777777777777784C134.1111111111111,5.777777777777784,134.33333333333331,5.7222222222222285,134.55555555555554,5.666666666666673C134.77777777777777,5.611111111111118,135.05555555555554,5.5555555555555625,135.33333333333331,5.444444444444451C135.6111111111111,5.333333333333339,135.83333333333331,5.111111111111118,136.1111111111111,4.944444444444451C136.38888888888889,4.777777777777784,136.6111111111111,4.5555555555555625,136.83333333333331,4.277777777777784C136.83333333333331,4.277777777777784,137.7222222222222,5.111111111111118,137.7222222222222,5.111111111111118C137.38888888888889,5.611111111111118,136.94444444444443,6.000000000000006,136.55555555555554,6.333333333333339C136.16666666666666,6.666666666666673,135.7222222222222,6.944444444444451,135.33333333333331,7.111111111111118C134.94444444444443,7.277777777777784,134.55555555555554,7.3888888888888955,134.16666666666666,7.444444444444451C133.77777777777777,7.500000000000006,133.38888888888889,7.555555555555562,133.05555555555554,7.555555555555562C132.33333333333331,7.555555555555562,131.66666666666666,7.3888888888888955,131.05555555555554,7.166666666666673C130.44444444444443,6.944444444444451,129.94444444444443,6.555555555555562,129.5,6.111111111111118C129.05555555555554,5.666666666666673,128.66666666666666,5.111111111111118,128.44444444444443,4.444444444444451C128.2222222222222,3.7777777777777843,128.1111111111111,3.0555555555555625,128.1111111111111,2.2222222222222285C128.1111111111111,1.5000000000000062,128.2222222222222,0.8888888888888955,128.44444444444443,0.22222222222222854C128.66666666666666,-0.44444444444443754,129.05555555555554,-0.9999999999999929,129.5,-1.499999999999993C129.94444444444443,-1.999999999999993,130.44444444444443,-2.388888888888882,131.05555555555554,-2.666666666666659C131.66666666666666,-2.9444444444444375,132.33333333333331,-3.1111111111111036,133.1111111111111,-3.1111111111111036C133.5,-3.1111111111111036,133.83333333333331,-3.0555555555555483,134.2222222222222,-2.999999999999993C134.6111111111111,-2.9444444444444375,134.94444444444443,-2.833333333333327,135.27777777777777,-2.666666666666659C135.6111111111111,-2.499999999999993,135.94444444444443,-2.2777777777777715,136.2222222222222,-2.0555555555555483C136.5,-1.8333333333333268,136.7222222222222,-1.5555555555555483,136.94444444444443,-1.1666666666666607C137.16666666666666,-0.7777777777777715,137.33333333333331,-0.3888888888888822,137.44444444444443,0.11111111111111782C137.55555555555554,0.6111111111111178,137.6111111111111,1.1666666666666732,137.6111111111111,1.8333333333333401C137.6111111111111,1.8333333333333401,137.6111111111111,1.8333333333333401,137.6111111111111,1.8333333333333401M145.94444444444443,-3.1111111111111036C146.16666666666666,-3.1111111111111036,146.38888888888886,-3.0555555555555483,146.6111111111111,-2.999999999999993C146.83333333333331,-2.9444444444444375,146.99999999999997,-2.833333333333327,147.16666666666666,-2.722222222222216C147.33333333333331,-2.6111111111111036,147.44444444444443,-2.388888888888882,147.55555555555554,-2.166666666666659C147.66666666666666,-1.9444444444444375,147.7222222222222,-1.722222222222216,147.7222222222222,-1.4444444444444375C147.7222222222222,-1.2777777777777715,147.66666666666666,-1.1111111111111036,147.6111111111111,-0.9444444444444375C147.55555555555554,-0.7777777777777715,147.49999999999997,-0.6111111111111045,147.38888888888886,-0.4999999999999929C147.27777777777774,-0.3888888888888822,147.1111111111111,-0.27777777777777146,146.94444444444443,-0.16666666666665986C146.77777777777774,-0.05555555555554914,146.55555555555554,-0.05555555555554914,146.27777777777774,-0.05555555555554914C146.16666666666666,-0.05555555555554914,146.05555555555554,-0.05555555555554914,145.88888888888886,-0.1111111111111045C145.7222222222222,-0.16666666666665986,145.6111111111111,-0.16666666666665986,145.49999999999997,-0.27777777777777146C145.38888888888886,-0.3888888888888822,145.27777777777774,-0.44444444444443754,145.16666666666666,-0.6111111111111045C145.05555555555554,-0.7777777777777715,144.99999999999997,-0.9999999999999929,144.99999999999997,-1.222222222222216C144.77777777777774,-1.222222222222216,144.6111111111111,-1.1111111111111036,144.38888888888886,-0.9999999999999929C144.16666666666666,-0.8888888888888822,143.99999999999997,-0.7222222222222152,143.83333333333331,-0.4999999999999929C143.66666666666666,-0.27777777777777146,143.44444444444443,-0.1111111111111045,143.33333333333331,0.11111111111111782C143.2222222222222,0.33333333333334014,143.1111111111111,0.5555555555555625,143.05555555555554,0.7222222222222285C143.05555555555554,0.7222222222222285,143.05555555555554,4.000000000000007,143.05555555555554,4.000000000000007C143.05555555555554,4.000000000000007,143.05555555555554,4.333333333333339,143.05555555555554,4.333333333333339C143.05555555555554,4.333333333333339,143.05555555555554,4.777777777777784,143.05555555555554,4.777777777777784C143.05555555555554,4.777777777777784,142.99999999999997,5.111111111111118,142.99999999999997,5.277777777777784C142.99999999999997,5.277777777777784,142.99999999999997,5.777777777777784,142.99999999999997,5.777777777777784C142.99999999999997,5.777777777777784,144.27777777777774,5.7222222222222285,144.27777777777774,5.7222222222222285C144.27777777777774,5.7222222222222285,144.27777777777774,7.2222222222222285,144.27777777777774,7.2222222222222285C144.27777777777774,7.2222222222222285,139.05555555555554,7.2222222222222285,139.05555555555554,7.2222222222222285C139.05555555555554,7.2222222222222285,139.05555555555554,5.944444444444451,139.05555555555554,5.944444444444451C139.33333333333331,5.944444444444451,139.49999999999997,5.8888888888888955,139.66666666666666,5.777777777777784C139.83333333333331,5.666666666666673,139.99999999999997,5.611111111111118,140.05555555555554,5.444444444444451C140.1111111111111,5.277777777777784,140.2222222222222,5.111111111111118,140.2222222222222,4.8888888888888955C140.2222222222222,4.8888888888888955,140.2222222222222,4.166666666666673,140.2222222222222,4.166666666666673C140.2222222222222,4.166666666666673,140.2222222222222,0.7777777777777848,140.2222222222222,0.7777777777777848C140.2222222222222,0.7777777777777848,140.2222222222222,-0.05555555555554914,140.2222222222222,-0.05555555555554914C140.2222222222222,-0.05555555555554914,140.2222222222222,-0.6666666666666599,140.27777777777774,-0.9444444444444375C140.27777777777774,-0.9444444444444375,138.88888888888886,-0.8888888888888822,138.88888888888886,-0.8888888888888822C138.88888888888886,-0.8888888888888822,138.88888888888886,-2.388888888888882,138.88888888888886,-2.388888888888882C139.33333333333331,-2.388888888888882,139.77777777777774,-2.388888888888882,140.1111111111111,-2.4444444444444375C140.44444444444443,-2.499999999999993,140.77777777777774,-2.499999999999993,141.05555555555554,-2.5555555555555483C141.33333333333331,-2.6111111111111036,141.44444444444443,-2.722222222222216,141.6111111111111,-2.7777777777777715C141.77777777777774,-2.833333333333327,141.94444444444443,-2.9444444444444375,141.99999999999997,-2.999999999999993C141.99999999999997,-2.999999999999993,142.94444444444443,-2.999999999999993,142.94444444444443,-2.999999999999993C142.94444444444443,-2.999999999999993,143.05555555555554,-1.2777777777777715,143.05555555555554,-1.2777777777777715C143.05555555555554,-1.2777777777777715,143.05555555555554,-1.2777777777777715,143.05555555555554,-1.2777777777777715C143.16666666666666,-1.4444444444444375,143.38888888888886,-1.6111111111111036,143.55555555555554,-1.8333333333333268C143.7222222222222,-2.0555555555555483,143.94444444444443,-2.2777777777777715,144.16666666666666,-2.4444444444444375C144.38888888888886,-2.6111111111111036,144.7222222222222,-2.7777777777777715,144.99999999999997,-2.888888888888882C145.27777777777774,-2.999999999999993,145.6111111111111,-3.1111111111111036,145.94444444444443,-3.1111111111111036C145.94444444444443,-3.1111111111111036,145.94444444444443,-3.1111111111111036,145.94444444444443,-3.1111111111111036M148.11111111111111,-2.7777777777777715C148.44444444444443,-2.7777777777777715,148.77777777777777,-2.888888888888882,149.05555555555554,-3.0555555555555483C149.33333333333331,-3.222222222222216,149.66666666666666,-3.4444444444444375,149.88888888888889,-3.666666666666659C150.11111111111111,-3.888888888888882,150.33333333333331,-4.166666666666659,150.5,-4.4444444444444375C150.66666666666666,-4.722222222222216,150.77777777777777,-4.999999999999993,150.83333333333331,-5.2777777777777715C150.83333333333331,-5.2777777777777715,152.33333333333331,-5.2777777777777715,152.33333333333331,-5.2777777777777715C152.33333333333331,-5.2777777777777715,152.33333333333331,-2.7777777777777715,152.33333333333331,-2.7777777777777715C152.33333333333331,-2.7777777777777715,154.88888888888889,-2.7777777777777715,154.88888888888889,-2.7777777777777715C154.88888888888889,-2.7777777777777715,154.88888888888889,-1.222222222222216,154.88888888888889,-1.222222222222216C154.88888888888889,-1.222222222222216,152.33333333333331,-1.1666666666666607,152.33333333333331,-1.1666666666666607C152.33333333333331,-0.22222222222221522,152.27777777777777,0.5555555555555625,152.27777777777777,1.1666666666666732C152.27777777777777,1.1666666666666732,152.27777777777777,2.666666666666673,152.27777777777777,2.666666666666673C152.27777777777777,2.666666666666673,152.27777777777777,3.444444444444451,152.27777777777777,3.444444444444451C152.27777777777777,3.444444444444451,152.27777777777777,3.7222222222222285,152.27777777777777,3.7222222222222285C152.27777777777777,3.944444444444451,152.27777777777777,4.2222222222222285,152.33333333333331,4.444444444444451C152.38888888888889,4.666666666666673,152.38888888888889,4.8888888888888955,152.5,5.0555555555555625C152.61111111111111,5.2222222222222285,152.72222222222223,5.3888888888888955,152.88888888888889,5.500000000000006C153.05555555555554,5.611111111111118,153.22222222222223,5.666666666666673,153.5,5.666666666666673C153.5,5.666666666666673,153.83333333333331,5.666666666666673,153.83333333333331,5.666666666666673C153.83333333333331,5.666666666666673,154.05555555555554,5.5555555555555625,154.22222222222223,5.500000000000006C154.38888888888889,5.444444444444451,154.61111111111111,5.277777777777784,154.77777777777777,5.111111111111118C154.94444444444443,4.944444444444451,155.16666666666666,4.777777777777784,155.33333333333331,4.500000000000007C155.33333333333331,4.500000000000007,156.27777777777777,5.3888888888888955,156.27777777777777,5.3888888888888955C155.88888888888889,5.944444444444451,155.55555555555554,6.333333333333339,155.16666666666666,6.611111111111118C154.77777777777777,6.8888888888888955,154.5,7.166666666666673,154.16666666666666,7.277777777777784C153.83333333333331,7.3888888888888955,153.5,7.500000000000006,153.22222222222223,7.500000000000006C152.94444444444443,7.500000000000006,152.72222222222223,7.555555555555562,152.55555555555554,7.555555555555562C152.33333333333331,7.555555555555562,152.11111111111111,7.555555555555562,151.88888888888889,7.500000000000006C151.66666666666666,7.444444444444451,151.38888888888889,7.3888888888888955,151.16666666666666,7.277777777777784C150.94444444444443,7.166666666666673,150.72222222222223,7.055555555555562,150.5,6.8888888888888955C150.27777777777777,6.7222222222222285,150.11111111111111,6.444444444444451,149.94444444444443,6.166666666666673C149.77777777777777,5.8888888888888955,149.72222222222223,5.500000000000006,149.61111111111111,5.111111111111118C149.5,4.7222222222222285,149.44444444444443,4.277777777777784,149.44444444444443,3.7222222222222285C149.44444444444443,3.7222222222222285,149.5,-1.1111111111111036,149.5,-1.1111111111111036C149.5,-1.1111111111111036,148.11111111111111,-1.1111111111111036,148.11111111111111,-1.1111111111111036C148.11111111111111,-1.1111111111111036,148.11111111111111,-2.7777777777777715,148.11111111111111,-2.7777777777777715C148.11111111111111,-2.7777777777777715,148.11111111111111,-2.7777777777777715,148.11111111111111,-2.7777777777777715M162.38888888888886,4.5555555555555625C162.44444444444443,4.3888888888888955,162.49999999999997,4.166666666666673,162.6111111111111,3.8888888888888955C162.7222222222222,3.5000000000000067,162.77777777777774,3.444444444444451,162.94444444444443,2.944444444444451C163.1111111111111,2.444444444444451,163.1111111111111,2.444444444444451,163.27777777777774,1.8333333333333401C163.44444444444443,1.2222222222222285,163.44444444444443,1.2222222222222285,163.66666666666663,0.5555555555555625C163.7222222222222,0.44444444444445086,163.77777777777774,0.2777777777777848,163.83333333333331,0.11111111111111782C163.83333333333331,0.11111111111111782,163.99999999999997,-0.3888888888888822,163.99999999999997,-0.3888888888888822C163.99999999999997,-0.3888888888888822,164.16666666666663,-0.7222222222222152,164.27777777777774,-0.8888888888888822C164.38888888888886,-1.0555555555555483,164.38888888888886,-1.222222222222216,164.49999999999997,-1.3333333333333268C164.49999999999997,-1.3333333333333268,164.49999999999997,-1.3333333333333268,164.49999999999997,-1.3333333333333268C164.49999999999997,-1.3333333333333268,163.38888888888886,-1.2777777777777715,163.38888888888886,-1.2777777777777715C163.38888888888886,-1.2777777777777715,163.38888888888886,-2.7777777777777715,163.38888888888886,-2.7777777777777715C163.38888888888886,-2.7777777777777715,166.94444444444443,-2.7777777777777715,166.94444444444443,-2.7777777777777715C166.94444444444443,-2.7777777777777715,166.94444444444443,-1.499999999999993,166.94444444444443,-1.499999999999993C166.49999999999997,-1.3888888888888822,166.16666666666663,-1.1111111111111036,165.88888888888886,-0.7222222222222152C165.6111111111111,-0.3333333333333268,165.38888888888886,0.16666666666667318,165.16666666666663,0.7777777777777848C165.16666666666663,0.7777777777777848,162.66666666666663,7.944444444444451,162.66666666666663,7.944444444444451C162.38888888888886,8.777777777777784,162.16666666666663,9.44444444444445,161.88888888888886,10.05555555555556C161.6111111111111,10.666666666666673,161.33333333333331,11.111111111111118,161.05555555555551,11.500000000000007C160.77777777777774,11.888888888888895,160.49999999999997,12.222222222222229,160.16666666666663,12.388888888888895C159.83333333333331,12.55555555555556,159.38888888888886,12.666666666666671,158.94444444444443,12.666666666666671C158.66666666666663,12.666666666666671,158.44444444444443,12.55555555555556,158.2222222222222,12.500000000000007C157.99999999999997,12.44444444444445,157.83333333333331,12.33333333333334,157.66666666666663,12.166666666666671C157.49999999999997,12.000000000000007,157.38888888888886,11.888888888888895,157.27777777777774,11.666666666666673C157.16666666666663,11.44444444444445,157.16666666666663,11.222222222222229,157.16666666666663,11.000000000000007C157.16666666666663,10.83333333333334,157.16666666666663,10.666666666666673,157.2222222222222,10.500000000000007C157.27777777777774,10.33333333333334,157.38888888888886,10.166666666666673,157.49999999999997,10.05555555555556C157.6111111111111,9.94444444444445,157.77777777777774,9.777777777777784,157.94444444444443,9.722222222222229C158.1111111111111,9.666666666666673,158.27777777777774,9.611111111111118,158.44444444444443,9.611111111111118C158.55555555555551,9.611111111111118,158.7222222222222,9.666666666666673,158.83333333333331,9.722222222222229C158.94444444444443,9.777777777777784,159.05555555555551,9.83333333333334,159.16666666666663,9.94444444444445C159.27777777777774,10.05555555555556,159.33333333333331,10.166666666666673,159.38888888888886,10.277777777777784C159.44444444444443,10.388888888888895,159.44444444444443,10.55555555555556,159.44444444444443,10.722222222222229C159.44444444444443,10.722222222222229,159.44444444444443,11.000000000000007,159.44444444444443,11.000000000000007C159.44444444444443,11.000000000000007,159.44444444444443,11.05555555555556,159.44444444444443,11.05555555555556C159.55555555555551,11.05555555555556,159.7222222222222,10.94444444444445,159.88888888888886,10.777777777777784C160.05555555555551,10.611111111111118,160.16666666666663,10.277777777777784,160.33333333333331,10.000000000000007C160.49999999999997,9.722222222222229,160.6111111111111,9.388888888888895,160.77777777777774,9.000000000000007C160.94444444444443,8.611111111111118,161.05555555555551,8.166666666666673,161.16666666666663,7.7222222222222285C161.16666666666663,7.7222222222222285,157.99999999999997,1.3888888888888955,157.99999999999997,1.3888888888888955C157.83333333333331,1.000000000000007,157.6111111111111,0.7222222222222285,157.49999999999997,0.44444444444445086C157.38888888888886,0.16666666666667318,157.27777777777774,-0.05555555555554914,157.2222222222222,-0.27777777777777146C157.16666666666663,-0.4999999999999929,157.16666666666663,-0.6666666666666599,157.1111111111111,-0.8333333333333268C157.05555555555551,-0.9999999999999929,156.99999999999997,-1.1111111111111036,156.99999999999997,-1.2777777777777715C156.99999999999997,-1.2777777777777715,156.1111111111111,-1.2777777777777715,156.1111111111111,-1.2777777777777715C156.1111111111111,-1.2777777777777715,156.1111111111111,-2.7777777777777715,156.1111111111111,-2.7777777777777715C156.1111111111111,-2.7777777777777715,161.05555555555551,-2.7777777777777715,161.05555555555551,-2.7777777777777715C161.05555555555551,-2.7777777777777715,161.05555555555551,-1.499999999999993,161.05555555555551,-1.499999999999993C160.7222222222222,-1.4444444444444375,160.55555555555551,-1.3888888888888822,160.44444444444443,-1.222222222222216C160.33333333333331,-1.0555555555555483,160.2222222222222,-0.9444444444444375,160.2222222222222,-0.7222222222222152C160.2222222222222,-0.6111111111111045,160.2222222222222,-0.44444444444443754,160.27777777777774,-0.3333333333333268C160.33333333333331,-0.22222222222221522,160.38888888888886,-0.05555555555554914,160.44444444444443,0.055555555555562464C160.44444444444443,0.055555555555562464,162.38888888888886,4.5555555555555625,162.38888888888886,4.5555555555555625C162.38888888888886,4.5555555555555625,162.38888888888886,4.5555555555555625,162.38888888888886,4.5555555555555625C162.38888888888886,4.5555555555555625,162.38888888888886,4.5555555555555625,162.38888888888886,4.5555555555555625"/> </g> </g> </g> </g> </svg>